<svg width="15" height="19" viewBox="0 0 15 19" fill="none" xmlns="http://www.w3.org/2000/svg">
<path fill-rule="evenodd" clip-rule="evenodd" d="M2.5 1C2.5 0.723858 2.72386 0.5 3 0.5H9.75C12.3561 0.5 14.4688 2.61266 14.4688 5.21875C14.4688 7.82484 12.3561 9.9375 9.75 9.9375H3C2.72386 9.9375 2.5 9.71364 2.5 9.4375V1ZM3.5 1.5V8.9375H9.75C11.8038 8.9375 13.4688 7.27256 13.4688 5.21875C13.4688 3.16494 11.8038 1.5 9.75 1.5H3.5ZM11.625 13C11.625 13.2761 11.4011 13.5 11.125 13.5H3.5L3.5 17.5312C3.5 17.8074 3.27614 18.0312 3 18.0312C2.72386 18.0312 2.5 17.8074 2.5 17.5312L2.5 13.5H1C0.723858 13.5 0.5 13.2761 0.5 13C0.5 12.7239 0.723858 12.5 1 12.5H11.125C11.4011 12.5 11.625 12.7239 11.625 13Z" fill="white"/>
</svg>
