<svg width="17" height="23" viewBox="0 0 17 23" fill="none" xmlns="http://www.w3.org/2000/svg">
<path fill-rule="evenodd" clip-rule="evenodd" d="M1.5 9.06739C1.5 6.47699 2.39156 4.58997 3.68889 3.35228C4.99256 2.10855 6.7388 1.48912 8.49687 1.50014C10.2551 1.51117 12.0041 2.15277 13.3103 3.40443C14.6101 4.64989 15.5 6.52657 15.5 9.06739C15.5 11.9527 13.7172 15.0717 11.8519 17.5269C10.9288 18.7419 10.0045 19.7699 9.31077 20.4943C8.9784 20.8414 8.69957 21.118 8.5 21.3115C8.30043 21.118 8.0216 20.8414 7.68923 20.4943C6.99546 19.7699 6.07122 18.7419 5.14813 17.5269C3.28281 15.0717 1.5 11.9527 1.5 9.06739ZM8.16361 22.3699C8.16375 22.3701 8.16386 22.3702 8.5 22L8.16386 22.3702C8.35451 22.5433 8.64549 22.5433 8.83614 22.3702L8.5 22C8.83614 22.3702 8.83625 22.3701 8.83639 22.3699L8.8368 22.3695L8.83815 22.3683L8.84288 22.364L8.8603 22.348C8.87539 22.3341 8.89737 22.3138 8.92577 22.2872C8.98259 22.234 9.06513 22.156 9.16973 22.0549C9.37889 21.8528 9.67646 21.5583 10.033 21.186C10.7455 20.4421 11.6962 19.3848 12.6481 18.1318C14.5328 15.6512 16.5 12.3038 16.5 9.06739C16.5 6.27708 15.5149 4.13189 14.0022 2.6824C12.4959 1.2391 10.4949 0.512651 8.50313 0.500163C6.5112 0.487675 4.50744 1.18928 2.99861 2.62874C1.48344 4.07426 0.5 6.23262 0.5 9.06739C0.5 12.3038 2.46719 15.6512 4.35187 18.1318C5.30378 19.3848 6.25454 20.4421 6.96702 21.186C7.32354 21.5583 7.62111 21.8528 7.83027 22.0549C7.93487 22.156 8.01741 22.234 8.07423 22.2872C8.10263 22.3138 8.12461 22.3341 8.1397 22.348L8.15712 22.364L8.16185 22.3683L8.1632 22.3695L8.16361 22.3699ZM6.5 8.5C6.5 7.39543 7.39543 6.5 8.5 6.5C9.60457 6.5 10.5 7.39543 10.5 8.5C10.5 9.60457 9.60457 10.5 8.5 10.5C7.39543 10.5 6.5 9.60457 6.5 8.5ZM8.5 5.5C6.84315 5.5 5.5 6.84315 5.5 8.5C5.5 10.1569 6.84315 11.5 8.5 11.5C10.1569 11.5 11.5 10.1569 11.5 8.5C11.5 6.84315 10.1569 5.5 8.5 5.5Z" fill="white"/>
</svg>
