<svg width="23" height="22" viewBox="0 0 23 22" fill="none" xmlns="http://www.w3.org/2000/svg">
<path fill-rule="evenodd" clip-rule="evenodd" d="M10.5415 0C10.5248 0 10.5081 0.000839353 10.4914 0.00251487L2.88362 0.768447C2.8767 0.769143 2.8698 0.769983 2.86292 0.770967C2.26588 0.856345 1.86358 1.29837 1.75292 1.88863C1.75023 1.90299 1.74817 1.91746 1.74674 1.932L1.00837 9.4676C0.931568 9.91073 1.13946 10.3193 1.39354 10.5427L12.4088 21.5325L12.2708 19.9822L12.2712 19.9826L12.4093 21.5329C12.625 21.7485 12.9236 21.9344 13.3241 21.9344C13.681 21.9344 13.9819 21.7899 14.2392 21.5326L14.2393 21.5325L22.5874 13.1844C22.7236 13.0481 22.8309 12.8872 22.8957 12.7015C23.0044 12.39 22.94 12.086 22.8517 11.8703C22.7881 11.7151 22.6886 11.5368 22.523 11.3917L11.508 0.376657C11.3223 0.190668 10.9943 0 10.5415 0ZM11.2634 8.66924L12.2712 19.9826L13.1155 20.825L13.116 20.8254C13.2065 20.916 13.2654 20.9344 13.3241 20.9344C13.3756 20.9344 13.4319 20.9257 13.5321 20.8255L13.5321 20.8254L21.8803 12.4773C21.9227 12.4349 21.9419 12.3998 21.9516 12.3721C21.9509 12.374 21.9541 12.3665 21.952 12.3443C21.9498 12.3211 21.9424 12.2886 21.9262 12.2492C21.8963 12.1762 21.8716 12.1501 21.8627 12.1427C21.8511 12.133 21.84 12.1229 21.8293 12.1122L10.8006 1.08346L10.8003 1.08315C10.7834 1.06626 10.7145 1.01062 10.5804 1.00132L10.4914 0.00251487L10.5804 1.00132C10.5746 1.00092 10.5687 1.00061 10.5628 1.00039L2.99624 1.76216C2.88503 1.78047 2.78341 1.84734 2.73959 2.05392L2.00153 9.58627C1.9999 9.60283 1.99745 9.61931 1.99419 9.63563C1.99082 9.65245 1.99131 9.68105 2.00641 9.71879C2.02253 9.7591 2.0455 9.78478 2.05383 9.79172C2.06525 9.80125 2.07625 9.81128 2.08678 9.82178L12.2708 19.9822L11.2633 8.66953C10.7827 9.77409 9.68723 10.5461 8.41888 10.5461C6.69082 10.5461 5.28933 9.15096 5.28933 7.44204C5.28933 5.71398 6.68448 4.3125 8.39339 4.3125H8.39344C9.21768 4.3125 10.0173 4.60549 10.5855 5.22444C10.7422 5.36814 10.8801 5.52726 10.9987 5.69855L10.5804 1.00132C10.5804 1.00132 10.5804 1.00132 10.5804 1.00132L10.9988 5.69871C11.3424 6.19523 11.5229 6.79405 11.5229 7.41656C11.5229 7.86195 11.4303 8.28565 11.2634 8.66924ZM6.28933 7.44204C6.28933 6.25992 7.24309 5.3125 8.39339 5.3125H8.39344C8.99018 5.3125 9.50993 5.52415 9.85997 5.91297C9.87167 5.92596 9.88404 5.93833 9.89703 5.95003C10.2948 6.30809 10.5229 6.83306 10.5229 7.41656C10.5229 8.59869 9.56918 9.5461 8.41888 9.5461C7.23675 9.5461 6.28933 8.59235 6.28933 7.44204Z" fill="white"/>
</svg>
