<svg width="23" height="22" viewBox="0 0 23 22" fill="none" xmlns="http://www.w3.org/2000/svg">
<path d="M8.7102 21.0005C9.23618 21.0005 9.66258 20.5741 9.66258 20.0481C9.66258 19.5221 9.23618 19.0957 8.7102 19.0957C8.18421 19.0957 7.75781 19.5221 7.75781 20.0481C7.75781 20.5741 8.18421 21.0005 8.7102 21.0005Z" stroke="white" stroke-width="1.5" stroke-linecap="round" stroke-linejoin="round"/>
<path d="M19.1868 21.0005C19.7127 21.0005 20.1391 20.5741 20.1391 20.0481C20.1391 19.5221 19.7127 19.0957 19.1868 19.0957C18.6608 19.0957 18.2344 19.5221 18.2344 20.0481C18.2344 20.5741 18.6608 21.0005 19.1868 21.0005Z" stroke="white" stroke-width="1.5" stroke-linecap="round" stroke-linejoin="round"/>
<path d="M1.09375 1H4.90329L7.45568 13.7524C7.54277 14.1909 7.78131 14.5848 8.12954 14.8651C8.47776 15.1454 8.91349 15.2943 9.36045 15.2858H18.6176C19.0646 15.2943 19.5003 15.1454 19.8485 14.8651C20.1968 14.5848 20.4353 14.1909 20.5224 13.7524L22.0462 5.76192H5.85567" stroke="white" stroke-width="1.5" stroke-linecap="round" stroke-linejoin="round"/>
</svg>
