<svg width="110" height="22" viewBox="0 0 110 22" fill="none" xmlns="http://www.w3.org/2000/svg">
<path d="M17.7079 7.41757L14.8985 16.041L12.0891 7.41757H9.16611L6.35669 16.041L3.54726 7.41757H0L4.9094 20.7968H7.66208L10.6134 11.6577L13.7066 20.7968H16.4877L21.2552 7.41757H17.7079Z" fill="#213A2B"/>
<path d="M35.6362 13.9783C35.6362 9.79547 32.6565 7.07378 28.8822 7.07378C25.0796 7.07378 21.9296 9.82412 21.9296 14.0929C21.9296 18.2757 24.9377 21.1406 28.8822 21.1406C31.2943 21.1406 33.6497 20.0519 34.87 18.1038L32.6565 16.4135C31.8903 17.5022 30.4998 18.1324 29.0809 18.1324C27.0944 18.1324 25.6755 17.1297 25.3066 15.2675H35.5794C35.6078 14.7805 35.6362 14.3507 35.6362 13.9783ZM25.3066 12.9469C25.7039 10.9128 27.1512 10.0247 28.9106 10.0247C30.7552 10.0247 32.1741 11.1133 32.3727 12.9469H25.3066Z" fill="#213A2B"/>
<path d="M44.4482 21.1406C46.7469 21.1406 48.6198 20.1092 49.8401 18.5622L47.5131 16.7C46.832 17.5308 45.6969 18.0465 44.505 18.0465C42.2064 18.0465 40.5605 16.3275 40.5605 14.0929C40.5605 11.8296 42.2064 10.1679 44.505 10.1679C45.6969 10.1679 46.832 10.6836 47.5131 11.5144L49.8401 9.65222C48.6198 8.10515 46.7469 7.07378 44.4482 7.07378C40.6172 7.07378 37.2402 9.85277 37.2402 14.0929C37.2402 18.333 40.6172 21.1406 44.4482 21.1406Z" fill="#213A2B"/>
<path d="M59.5077 7.07378C58.1739 7.07378 56.0456 7.81866 55.3929 9.45167V0.140625H52.101V20.7968H55.3929V13.7204C55.3929 11.1133 57.2658 10.2252 58.7699 10.2252C60.2455 10.2252 61.5225 11.3712 61.5225 13.5199V20.7968H64.8144V13.2907C64.8144 9.39438 62.913 7.07378 59.5077 7.07378Z" fill="#213A2B"/>
<path d="M80.9069 13.9783C80.9069 9.79547 77.9273 7.07378 74.153 7.07378C70.3503 7.07378 67.2003 9.82412 67.2003 14.0929C67.2003 18.2757 70.2084 21.1406 74.153 21.1406C76.5651 21.1406 78.9205 20.0519 80.1407 18.1038L77.9273 16.4135C77.161 17.5022 75.7705 18.1324 74.3516 18.1324C72.3652 18.1324 70.9463 17.1297 70.5773 15.2675H80.8502C80.8786 14.7805 80.9069 14.3507 80.9069 13.9783ZM70.5773 12.9469C70.9746 10.9128 72.4219 10.0247 74.1814 10.0247C76.0259 10.0247 77.4448 11.1133 77.6435 12.9469H70.5773Z" fill="#213A2B"/>
<path d="M89.719 21.1406C92.0176 21.1406 93.8906 20.1092 95.1108 18.5622L92.7838 16.7C92.1028 17.5308 90.9676 18.0465 89.7758 18.0465C87.4771 18.0465 85.8312 16.3275 85.8312 14.0929C85.8312 11.8296 87.4771 10.1679 89.7758 10.1679C90.9676 10.1679 92.1028 10.6836 92.7838 11.5144L95.1108 9.65222C93.8906 8.10515 92.0176 7.07378 89.719 7.07378C85.888 7.07378 82.511 9.85277 82.511 14.0929C82.511 18.333 85.888 21.1406 89.719 21.1406Z" fill="#213A2B"/>
<path d="M110 20.7968L103.36 13.262L108.751 7.41757H104.466L100.664 11.6863V0.140625H97.3718V20.7968H100.664V14.7232L105.828 20.7968H110Z" fill="#213A2B"/>
</svg>
