<svg width="19" height="19" viewBox="0 0 19 19" fill="none" xmlns="http://www.w3.org/2000/svg">
<path d="M18.0952 9.41857V1.80952C18.0952 1.32961 17.9046 0.869349 17.5652 0.529997C17.2259 0.190646 16.7656 0 16.2857 0H1.80952C1.32961 0 0.869349 0.190646 0.529997 0.529997C0.190646 0.869349 0 1.32961 0 1.80952V18.0952L3.61905 14.4762H6.59571C7.03052 15.9341 7.97554 17.1869 9.25799 18.0054C10.5404 18.8239 12.0747 19.1534 13.5801 18.9338C15.0856 18.7142 16.4617 17.9601 17.4569 16.8093C18.4521 15.6586 18.9998 14.1881 19 12.6667C19 11.4814 18.6652 10.3686 18.0952 9.41857ZM2.8681 12.6667L1.80952 13.7252V1.80952H16.2857V7.47333C15.2252 6.73044 13.9615 6.33238 12.6667 6.33333C10.9476 6.33333 9.38238 7.03 8.24238 8.14286H3.61905V9.95238H6.95762C6.55952 10.7757 6.33333 11.6986 6.33333 12.6667H2.8681ZM12.6667 17.0548C10.2419 17.0548 8.27857 15.0914 8.27857 12.6667C8.27857 10.2419 10.2419 8.27857 12.6667 8.27857C15.0824 8.27857 17.0548 10.2419 17.0548 12.6667C17.0548 15.0914 15.0824 17.0548 12.6667 17.0548ZM14.4762 6.33333H3.61905V4.52381H14.4762V6.33333ZM13.119 12.5038L15.3267 13.7795L14.6481 14.9557L11.7619 13.291V9.95238H13.119V12.5038Z" fill="#B4BDC1"/>
</svg>
