<svg width="14" height="14" viewBox="0 0 14 14" fill="none" xmlns="http://www.w3.org/2000/svg">
<path d="M13.3273 8.63237L12.1625 7.95971C12.28 7.32534 12.28 6.67456 12.1625 6.04018L13.3273 5.36752C13.4613 5.29096 13.5215 5.13237 13.4777 4.98471C13.1742 4.01127 12.6574 3.13081 11.982 2.39799C11.8781 2.28588 11.7086 2.25854 11.5773 2.3351L10.4125 3.00776C9.92302 2.58667 9.35974 2.26127 8.74997 2.04799V0.705415C8.74997 0.55229 8.64333 0.418306 8.49294 0.385493C7.48942 0.161274 6.4613 0.172212 5.507 0.385493C5.35661 0.418306 5.24997 0.55229 5.24997 0.705415V2.05073C4.64294 2.26674 4.07966 2.59213 3.58747 3.01049L2.42536 2.33784C2.29138 2.26127 2.12458 2.28588 2.02068 2.40073C1.34528 3.13081 0.828488 4.01127 0.524972 4.98745C0.478488 5.1351 0.541378 5.2937 0.675363 5.37026L1.84021 6.04292C1.72263 6.67729 1.72263 7.32807 1.84021 7.96245L0.675363 8.6351C0.541378 8.71167 0.481222 8.87026 0.524972 9.01791C0.828488 9.99135 1.34528 10.8718 2.02068 11.6046C2.12458 11.7167 2.29411 11.7441 2.42536 11.6675L3.59021 10.9949C4.07966 11.416 4.64294 11.7414 5.25271 11.9546V13.2999C5.25271 13.4531 5.35935 13.5871 5.50974 13.6199C6.51325 13.8441 7.54138 13.8331 8.49567 13.6199C8.64607 13.5871 8.75271 13.4531 8.75271 13.2999V11.9546C9.35974 11.7386 9.92302 11.4132 10.4152 10.9949L11.58 11.6675C11.714 11.7441 11.8808 11.7195 11.9847 11.6046C12.6601 10.8746 13.1769 9.99409 13.4804 9.01791C13.5215 8.86752 13.4613 8.70893 13.3273 8.63237ZM6.99997 9.18745C5.79411 9.18745 4.81247 8.20581 4.81247 6.99995C4.81247 5.79409 5.79411 4.81245 6.99997 4.81245C8.20583 4.81245 9.18747 5.79409 9.18747 6.99995C9.18747 8.20581 8.20583 9.18745 6.99997 9.18745Z" fill="#B4BDC1"/>
</svg>
