<svg width="22" height="17" viewBox="0 0 22 17" fill="none" xmlns="http://www.w3.org/2000/svg">
<path d="M20 7.11C19.92 7.11 19.72 7.21 19.62 7.31L18.62 8.31L20.72 10.42L21.72 9.41C21.92 9.21 21.92 8.81 21.72 8.61L20.42 7.31C20.32 7.21 20.22 7.11 20 7.11ZM18.12 8.91L12 14.92V17H14.12L20.22 10.92L18.12 8.91ZM20 4V4.11L18 6.11V4H2V14H10V16H2C1.46957 16 0.960859 15.7893 0.585786 15.4142C0.210714 15.0391 0 14.5304 0 14V2C0 0.91 0.9 0 2 0H8L10 2H18C18.5304 2 19.0391 2.21071 19.4142 2.58579C19.7893 2.96086 20 3.46957 20 4Z" fill="#B4BDC1"/>
</svg>
