<svg width="18" height="18" viewBox="0 0 18 18" fill="none" xmlns="http://www.w3.org/2000/svg">
<circle cx="9" cy="9" r="9" fill="#B4BDC1"/>
<path d="M8.33678 11.9109C8.25449 11.9109 8.18249 11.88 8.12078 11.8183C8.05907 11.7566 8.02821 11.6846 8.02821 11.6023V11.1086C8.07964 10.6252 8.22878 10.2035 8.47564 9.84346C8.73278 9.47318 9.09278 9.05146 9.55564 8.57832C9.89507 8.24918 10.1522 7.96632 10.3271 7.72975C10.5019 7.49318 10.6048 7.25146 10.6356 7.00461C10.6768 6.58289 10.5379 6.24861 10.2191 6.00175C9.90021 5.74461 9.5145 5.61604 9.06192 5.61604C8.05392 5.61604 7.44707 6.11489 7.24135 7.11261C7.16935 7.34918 7.02021 7.46746 6.79392 7.46746H5.4825C5.37964 7.46746 5.29735 7.43661 5.23564 7.37489C5.17392 7.30289 5.14307 7.21032 5.14307 7.09718C5.16364 6.53146 5.33335 6.00175 5.65221 5.50803C5.97107 5.01432 6.43392 4.61832 7.04078 4.32004C7.64764 4.01146 8.35735 3.85718 9.16992 3.85718C10.0236 3.85718 10.7231 3.99603 11.2682 4.27375C11.8236 4.54118 12.2248 4.88575 12.4716 5.30746C12.7288 5.72918 12.8574 6.16632 12.8574 6.61889C12.8574 7.14346 12.7391 7.59604 12.5025 7.97661C12.2762 8.34689 11.9316 8.77889 11.4688 9.27261C11.1396 9.63261 10.8825 9.94118 10.6974 10.1983C10.5225 10.4452 10.4042 10.7126 10.3425 11.0006C10.3014 11.2577 10.2756 11.4326 10.2654 11.5252C10.1831 11.7823 10.0442 11.9109 9.84878 11.9109H8.33678ZM8.2905 14.8115C8.18764 14.8115 8.10021 14.7755 8.02821 14.7035C7.95621 14.6315 7.92021 14.544 7.92021 14.4412V13.0989C7.92021 12.996 7.95621 12.9086 8.02821 12.8366C8.10021 12.7543 8.18764 12.7132 8.2905 12.7132H9.78707C9.90021 12.7132 9.99278 12.7492 10.0648 12.8212C10.1368 12.8932 10.1728 12.9857 10.1728 13.0989V14.4412C10.1728 14.544 10.1368 14.6315 10.0648 14.7035C9.99278 14.7755 9.90021 14.8115 9.78707 14.8115H8.2905Z" fill="white"/>
</svg>
